<?xml version="1.0" encoding="utf-8"?>
<!-- Generator: Adobe Illustrator 22.1.0, SVG Export Plug-In . SVG Version: 6.00 Build 0)  -->
<svg version="1.1" id="Layer_1" xmlns="http://www.w3.org/2000/svg" xmlns:xlink="http://www.w3.org/1999/xlink" x="0px" y="0px"
	 viewBox="0 0 415.7 87.5" style="enable-background:new 0 0 415.7 87.5;" xml:space="preserve">
<style type="text/css">
	.st0{fill:#fff;}
</style>
<title>Nanosemantics Logo</title>
<g id="g5406">
	<path id="path10" class="st0" d="M29.7,39.7c0-1.9,0-3.9,0.2-5.8c0.2-2.6,0.5-3.1,3.9-3.5c5.1-0.6,10.3-0.8,15.5-0.8v5
		c-4.7,0.1-9.4,0.3-14,0.6c-0.6,0-0.8,0.3-0.8,0.6c-0.1,1-0.1,2.5-0.1,3.9s0.1,2.9,0.1,3.9c0,0.4,0.2,0.6,0.8,0.6
		c6.2,0.5,12.6,0.6,19,0.7v-5.7h5v5.7c6.4,0,12.8-0.2,19-0.7c0.6-0.1,0.8-0.3,0.8-0.6c0.1-1,0.1-2.5,0.1-3.9s-0.1-2.9-0.1-3.9
		c0-0.4-0.2-0.6-0.8-0.6c-4.6-0.3-9.3-0.5-14-0.6v-5c5.1,0.1,10.1,0.3,15.5,0.8c3.4,0.4,3.7,0.9,3.9,3.5c0.2,1.9,0.2,3.9,0.2,5.8
		c0,1.9,0,3.9-0.2,5.8c-0.2,2.6-0.5,3.1-3.9,3.5c-7.6,0.7-15.3,1-23,0.9c-7.7,0.2-15.4-0.1-23-0.9c-3.4-0.4-3.7-0.9-3.9-3.5
		C29.8,43.5,29.7,41.6,29.7,39.7z M49.4,64.4c-7,0-14-0.5-21-1.5c-5.5-0.7-10-4.6-11.6-9.9l-5.2,1c2.3,7.4,7.5,12.5,15.4,13.9
		c8.5,1.5,20.4,1.6,29.9,1.6s21.4-0.1,29.9-1.6c8-1.4,13.2-6.6,15.4-14.1L97,52.9c-1.5,5.4-6.1,9.4-11.7,10.1
		c-9,1.4-19.4,1.5-28.5,1.6h-2.5v-4.8h2.5c9.2,0.2,18.4-0.3,27.6-1.5c4.8-0.7,7.7-4.3,8.5-8.8c0.5-3.2,0.7-6.5,0.8-9.8
		c-0.1-3.3-0.3-6.6-0.8-9.8c-0.8-4.5-3.7-8.2-8.5-8.8c-3.3-0.5-6.7-0.8-10.2-1v-4.8c3.8,0.2,7.5,0.6,11.1,1.1
		c6.1,0.9,10.6,5.1,12.1,11.5c0.1,0.4,0.2,0.7,0.2,1.1l5.1-0.9c-0.1-0.7-0.3-1.3-0.5-2c-2.2-7.7-7.4-13-15.5-14.5
		C78.3,10,66.5,9.9,56.9,9.9S35.5,10,27,11.5c-8.1,1.4-13.4,6.8-15.5,14.5c-1.1,3.9-1.3,9.5-1.4,13.7c0.1,2.8,0.2,6.3,0.6,9.5
		l5.1-0.9c-0.4-2.8-0.6-5.7-0.6-8.6c0-1.6,0.1-3.8,0.3-6.1l4.9,0.8c-0.1,1.7-0.2,3.5-0.3,5.3c0.1,3.3,0.3,6.6,0.8,9.8
		c0.8,4.5,3.7,8.2,8.5,8.8c5,0.7,10,1.1,15.1,1.2v-5.2c-4.3-0.2-8.6-0.4-12.6-0.9s-6.1-1.7-6.5-5.9c-0.2-2.3-0.3-5.4-0.3-7.9
		s0.1-5.6,0.3-7.9c0.4-4.3,2.5-5.5,6.5-5.9c8.3-0.8,16.7-1.2,25.1-1.1c2.4,0,4.9,0,7.5,0.1v-5.2c-2.5,0-5-0.1-7.5-0.1
		c-9.2-0.2-18.4,0.3-27.6,1.5c-4.6,0.6-7.5,4.1-8.4,8.4l-4.8-0.8c0.1-0.3,0.1-0.5,0.2-0.8c1.5-6.4,6-10.6,12.1-11.5
		c9-1.4,19.4-1.5,28.5-1.6c4,0,8.2,0,12.5,0.2v10c4.3,0.2,8.6,0.4,12.6,0.9s6.1,1.6,6.5,5.9c0.2,2.3,0.3,5.4,0.3,7.9
		s-0.1,5.6-0.3,7.9c-0.4,4.3-2.5,5.5-6.5,5.9c-8.3,0.8-16.7,1.2-25.1,1.1c-2.4,0-4.9,0-7.5-0.1L49.4,64.4L49.4,64.4z M108,49.8
		c-0.3,1.8-0.7,3.6-1.2,5.4c-2.6,8.6-9.5,15.7-18.6,17.3c-10,1.8-21.2,1.9-31.4,1.9c-8.3,0.1-16.6-0.2-24.8-1l-0.4,3.1l-1.4,10.3
		l5,0.7l1.2-8.8c6.9,0.5,13.9,0.6,20.5,0.6c10.7,0,22.5-0.2,32.9-2.1c10.7-1.9,18.5-9.9,21.8-20c1.8-5.5,2.2-11.8,2.2-17.6
		s-0.4-12-2.2-17.6c-3.3-10-11.1-18-21.8-19.9C79.4,0.3,67.5,0,56.9,0S34.4,0.3,24,2.1C13.3,4,5.5,12,2.2,22.1
		C0.4,27.6,0.1,33.9,0,39.7s0.4,12,2.2,17.6c3.3,10.1,11.1,18.1,21.8,20c0.8,0.1,1.6,0.3,2.4,0.4l0.7-4.9l-1.6-0.3
		c-9-1.6-16-8.7-18.6-17.3c-1.5-5-1.7-10.3-1.7-15.6S5.4,29.1,6.9,24c2.6-8.5,9.6-15.5,18.6-17.1C35.5,5.1,46.7,5,56.9,5
		s21.4,0.1,31.4,1.9c9,1.6,16,8.7,18.6,17.3c1.5,5,1.7,10.3,1.7,15.6c0,1.8,0,3.5-0.1,5.3l-4.8-0.9c0.1-1.6,0.1-3.1,0.1-4.4
		c0-2-0.1-4.5-0.3-6.8l-5,0.9c0.2,2.3,0.3,4.4,0.3,5.9c0,2.8-0.2,5.6-0.6,8.4L108,49.8z M54.4,29.5h5v5h-5V29.5z"/>
</g>
<g>
	<path class="st0" d="M151.8,31V57h-3.2L138,43.5l-3.7-5.1l0,5.3v13.2h-4.2V30.8h3.2l10.5,13.5l3.7,5.1l0-5.3V31H151.8z"/>
	<path class="st0" d="M173.2,56.7v0.2h-3.7c-0.2-0.4-0.3-0.7-0.4-1.1c-1.6,0.8-3.9,1.4-5.8,1.4c-4.4,0-6.9-2.2-6.9-5.9
		c0-3.7,3.2-6.1,8.1-6.1c1.6,0,2.8,0.1,3.9,0.3v-0.5c0-2.7-1.6-4-4.5-4c-1.8,0-3.7,0.3-5.6,0.9l-1-3c2.4-0.9,4.7-1.4,7.1-1.4
		c3.1,0,5,0.8,6.2,2c1.3,1.3,1.9,3.2,1.9,5.4V51C172.3,52.9,172.6,55,173.2,56.7z M163.9,54.1c1.4,0,3.1-0.4,4.5-1v-4.6
		c-1.2-0.2-2.1-0.3-3.6-0.3c-3,0-4.5,1.2-4.5,3.1C160.2,53.1,161.5,54.1,163.9,54.1z"/>
	<path class="st0" d="M194.8,44.9v12h-4.1V45.5c0-2.8-1.6-4.3-4.1-4.3c-1.5,0-3.2,0.4-4.7,1.3v14.5h-4.1V38h3.9v1.4
		c1.8-1.1,4.1-1.7,6.4-1.7c2.2,0,3.8,0.6,5,1.8C194.3,40.7,194.8,42.5,194.8,44.9z"/>
	<path class="st0" d="M218.3,47.4c0,6-4.4,9.8-9.7,9.8c-5.3,0-9.7-3.9-9.7-9.8c0-6,4.4-9.8,9.7-9.8C214,37.6,218.3,41.5,218.3,47.4z
		 M214.1,47.4c0-4-2.2-6.3-5.4-6.3c-3.2,0-5.4,2.3-5.4,6.3c0,4,2.2,6.3,5.4,6.3C211.8,53.7,214.1,51.4,214.1,47.4z"/>
	<path class="st0" d="M235.8,38.7l-1,3c-1.9-0.6-3.8-0.9-5.7-0.9c-2.3,0-3.4,0.9-3.4,2.1c0,1.2,0.8,1.9,3.9,2.7
		c5.4,1.3,7.3,3,7.3,5.8c0,3.9-2.9,5.8-8.1,5.8c-2.6,0-5.2-0.4-7.6-1.3l1-3c2.1,0.6,4.6,1,6.6,1c2.9,0,4.1-0.8,4.1-2.2
		c0-1.2-0.9-1.9-4.5-2.8c-4.9-1.2-6.6-2.9-6.6-5.9c0-3.2,2.6-5.5,7.3-5.5C231.4,37.6,233.7,38,235.8,38.7z"/>
	<path class="st0" d="M257.5,48.9h-13.6c0.5,3.2,2.9,4.9,6.3,4.9c1.7,0,3.7-0.4,5.3-1l1,3.1c-2.2,0.9-4.2,1.4-6.9,1.4
		c-5.5,0-9.9-3.5-9.9-9.8c0-6.2,4.6-9.8,9.3-9.8c5,0,8.7,3.6,8.7,9.4C257.6,47.6,257.6,48.5,257.5,48.9z M243.9,45.9h9.5
		c-0.1-3.1-1.8-4.9-4.5-4.9C246.3,41,244.4,42.6,243.9,45.9z"/>
	<path class="st0" d="M290.4,44.4v12.5h-4.1V45.1c0-2.5-1.5-3.9-3.9-3.9c-1.5,0-3.1,0.4-4.2,1v14.8h-4.1v-12c0-2.7-1.3-3.8-3.6-3.8
		c-1.3,0-3,0.4-4.5,1.2v14.5h-4.1V38h3.9v1.3c1.7-1,4-1.7,6.2-1.7c1.9,0,3.7,0.7,5,1.9c1.9-1.2,4.4-1.9,6.9-1.9
		c2.1,0,3.9,0.7,4.9,1.8C289.9,40.6,290.4,42.2,290.4,44.4z"/>
	<path class="st0" d="M311.4,56.7v0.2h-3.7c-0.2-0.4-0.3-0.7-0.4-1.1c-1.6,0.8-3.9,1.4-5.8,1.4c-4.4,0-6.9-2.2-6.9-5.9
		c0-3.7,3.2-6.1,8.1-6.1c1.6,0,2.8,0.1,3.9,0.3v-0.5c0-2.7-1.6-4-4.5-4c-1.8,0-3.7,0.3-5.6,0.9l-1-3c2.4-0.9,4.7-1.4,7.1-1.4
		c3.1,0,5,0.8,6.2,2c1.3,1.3,1.9,3.2,1.9,5.4V51C310.5,52.9,310.8,55,311.4,56.7z M302.1,54.1c1.4,0,3.1-0.4,4.5-1v-4.6
		c-1.2-0.2-2.1-0.3-3.6-0.3c-3,0-4.5,1.2-4.5,3.1C298.4,53.1,299.7,54.1,302.1,54.1z"/>
	<path class="st0" d="M333,44.9v12h-4.1V45.5c0-2.8-1.6-4.3-4.1-4.3c-1.5,0-3.2,0.4-4.7,1.3v14.5h-4.1V38h3.9v1.4
		c1.8-1.1,4.1-1.7,6.4-1.7c2.2,0,3.8,0.6,5,1.8C332.5,40.7,333,42.5,333,44.9z"/>
	<path class="st0" d="M349.1,56.5c-1.2,0.5-2.9,0.8-4.3,0.8c-1.7,0-3.2-0.4-4.1-1.4c-1-1-1.4-2.2-1.4-4.4V41.4h-3.1V38h3.1v-4.6h4.1
		V38h4.8v3.4h-4.8V51c0,1.9,0.9,2.8,2.5,2.8c0.9,0,1.8-0.2,2.6-0.4L349.1,56.5z"/>
	<path class="st0" d="M356.9,30.8v3.6h-4.1v-3.6H356.9z M356.9,38v18.9h-4.1V38H356.9z"/>
	<path class="st0" d="M377.4,39.1l-1.2,3.1c-1.3-0.6-3-1-4.5-1c-3.6,0-6.1,2.3-6.1,6.3c0,4,2.5,6.3,6.1,6.3c1.6,0,3.4-0.4,4.7-1
		l1.2,3.1c-1.8,1-3.9,1.5-6.5,1.5c-5.3,0-9.7-3.5-9.7-9.8c0-6.3,4.4-9.8,9.7-9.8C373.5,37.6,375.6,38.1,377.4,39.1z"/>
	<path class="st0" d="M394.7,38.7l-1,3c-1.9-0.6-3.8-0.9-5.7-0.9c-2.3,0-3.4,0.9-3.4,2.1c0,1.2,0.8,1.9,3.9,2.7
		c5.4,1.3,7.3,3,7.3,5.8c0,3.9-2.9,5.8-8.1,5.8c-2.6,0-5.2-0.4-7.6-1.3l1-3c2.1,0.6,4.6,1,6.6,1c2.9,0,4.1-0.8,4.1-2.2
		c0-1.2-0.9-1.9-4.5-2.8c-4.9-1.2-6.6-2.9-6.6-5.9c0-3.2,2.6-5.5,7.3-5.5C390.3,37.6,392.6,38,394.7,38.7z"/>
</g>
</svg>
