<?xml version="1.0" encoding="utf-8"?>
<!-- Generator: Adobe Illustrator 22.1.0, SVG Export Plug-In . SVG Version: 6.00 Build 0)  -->
<svg xmlns="http://www.w3.org/2000/svg" xmlns:xlink="http://www.w3.org/1999/xlink" version="1.1" id="Layer_1" x="0px" y="0px" viewBox="0 0 415.7 87.5" style="enable-background:new 0 0 415.7 87.5;" xml:space="preserve">
<style type="text/css">
	.st1{fill:#fff;}
</style>
<title>Логотип Наносементики</title>
<g id="g5406">
	<path id="path10" class="st1" d="M29.7,39.7c0-1.9,0-3.9,0.2-5.8c0.2-2.6,0.5-3.1,3.9-3.5c5.1-0.6,10.3-0.8,15.5-0.8v5   c-4.7,0.1-9.4,0.3-14,0.6c-0.6,0-0.8,0.3-0.8,0.6c-0.1,1-0.1,2.5-0.1,3.9s0.1,2.9,0.1,3.9c0,0.4,0.2,0.6,0.8,0.6   c6.2,0.5,12.6,0.6,19,0.7v-5.7h5v5.7c6.4,0,12.8-0.2,19-0.7c0.6-0.1,0.8-0.3,0.8-0.6c0.1-1,0.1-2.5,0.1-3.9s-0.1-2.9-0.1-3.9   c0-0.4-0.2-0.6-0.8-0.6c-4.6-0.3-9.3-0.5-14-0.6v-5c5.1,0.1,10.1,0.3,15.5,0.8c3.4,0.4,3.7,0.9,3.9,3.5c0.2,1.9,0.2,3.9,0.2,5.8   c0,1.9,0,3.9-0.2,5.8c-0.2,2.6-0.5,3.1-3.9,3.5c-7.6,0.7-15.3,1-23,0.9c-7.7,0.2-15.4-0.1-23-0.9c-3.4-0.4-3.7-0.9-3.9-3.5   C29.8,43.5,29.7,41.6,29.7,39.7z M49.4,64.4c-7,0-14-0.5-21-1.5c-5.5-0.7-10-4.6-11.6-9.9l-5.2,1c2.3,7.4,7.5,12.5,15.4,13.9   c8.5,1.5,20.4,1.6,29.9,1.6s21.4-0.1,29.9-1.6c8-1.4,13.2-6.6,15.4-14.1L97,52.9c-1.5,5.4-6.1,9.4-11.7,10.1   c-9,1.4-19.4,1.5-28.5,1.6h-2.5v-4.8h2.5c9.2,0.2,18.4-0.3,27.6-1.5c4.8-0.7,7.7-4.3,8.5-8.8c0.5-3.2,0.7-6.5,0.8-9.8   c-0.1-3.3-0.3-6.6-0.8-9.8c-0.8-4.5-3.7-8.2-8.5-8.8c-3.3-0.5-6.7-0.8-10.2-1v-4.8c3.8,0.2,7.5,0.6,11.1,1.1   c6.1,0.9,10.6,5.1,12.1,11.5c0.1,0.4,0.2,0.7,0.2,1.1l5.1-0.9c-0.1-0.7-0.3-1.3-0.5-2c-2.2-7.7-7.4-13-15.5-14.5   C78.3,10,66.5,9.9,56.9,9.9S35.5,10,27,11.5c-8.1,1.4-13.4,6.8-15.5,14.5c-1.1,3.9-1.3,9.5-1.4,13.7c0.1,2.8,0.2,6.3,0.6,9.5   l5.1-0.9c-0.4-2.8-0.6-5.7-0.6-8.6c0-1.6,0.1-3.8,0.3-6.1l4.9,0.8c-0.1,1.7-0.2,3.5-0.3,5.3c0.1,3.3,0.3,6.6,0.8,9.8   c0.8,4.5,3.7,8.2,8.5,8.8c5,0.7,10,1.1,15.1,1.2v-5.2c-4.3-0.2-8.6-0.4-12.6-0.9s-6.1-1.7-6.5-5.9c-0.2-2.3-0.3-5.4-0.3-7.9   s0.1-5.6,0.3-7.9c0.4-4.3,2.5-5.5,6.5-5.9c8.3-0.8,16.7-1.2,25.1-1.1c2.4,0,4.9,0,7.5,0.1v-5.2c-2.5,0-5-0.1-7.5-0.1   c-9.2-0.2-18.4,0.3-27.6,1.5c-4.6,0.6-7.5,4.1-8.4,8.4l-4.8-0.8c0.1-0.3,0.1-0.5,0.2-0.8c1.5-6.4,6-10.6,12.1-11.5   c9-1.4,19.4-1.5,28.5-1.6c4,0,8.2,0,12.5,0.2v10c4.3,0.2,8.6,0.4,12.6,0.9s6.1,1.6,6.5,5.9c0.2,2.3,0.3,5.4,0.3,7.9   s-0.1,5.6-0.3,7.9c-0.4,4.3-2.5,5.5-6.5,5.9c-8.3,0.8-16.7,1.2-25.1,1.1c-2.4,0-4.9,0-7.5-0.1L49.4,64.4L49.4,64.4z M108,49.8   c-0.3,1.8-0.7,3.6-1.2,5.4c-2.6,8.6-9.5,15.7-18.6,17.3c-10,1.8-21.2,1.9-31.4,1.9c-8.3,0.1-16.6-0.2-24.8-1l-0.4,3.1l-1.4,10.3   l5,0.7l1.2-8.8c6.9,0.5,13.9,0.6,20.5,0.6c10.7,0,22.5-0.2,32.9-2.1c10.7-1.9,18.5-9.9,21.8-20c1.8-5.5,2.2-11.8,2.2-17.6   s-0.4-12-2.2-17.6c-3.3-10-11.1-18-21.8-19.9C79.4,0.3,67.5,0,56.9,0S34.4,0.3,24,2.1C13.3,4,5.5,12,2.2,22.1   C0.4,27.6,0.1,33.9,0,39.7s0.4,12,2.2,17.6c3.3,10.1,11.1,18.1,21.8,20c0.8,0.1,1.6,0.3,2.4,0.4l0.7-4.9l-1.6-0.3   c-9-1.6-16-8.7-18.6-17.3c-1.5-5-1.7-10.3-1.7-15.6S5.4,29.1,6.9,24c2.6-8.5,9.6-15.5,18.6-17.1C35.5,5.1,46.7,5,56.9,5   s21.4,0.1,31.4,1.9c9,1.6,16,8.7,18.6,17.3c1.5,5,1.7,10.3,1.7,15.6c0,1.8,0,3.5-0.1,5.3l-4.8-0.9c0.1-1.6,0.1-3.1,0.1-4.4   c0-2-0.1-4.5-0.3-6.8l-5,0.9c0.2,2.3,0.3,4.4,0.3,5.9c0,2.8-0.2,5.6-0.6,8.4L108,49.8z M54.4,29.5h5v5h-5V29.5z"/>
	<path id="path12" class="st1" d="M134.7,57.1h-5.2V29.9h5.2v10.4h11.7V29.9h5.1v27.3h-5.1V45h-11.7V57.1z"/>
	<path id="path14" class="st1" d="M173.2,56.1c-2.9,1-5.9,1.6-9,1.6c-6.3,0-8.4-1.4-8.4-6.7c0-5.6,3.2-6.5,7.8-6.5   c1.6,0,3.3,0.2,4.9,0.5c0-3.5-0.8-4.3-5-4.3c-2,0-4.1,0.3-6,0.9l-0.9-4c2.6-0.7,5.2-1,7.9-1.1c5.9,0,8.6,1.8,8.6,7.8L173.2,56.1   L173.2,56.1z M168.5,48.3c-1.3-0.3-2.7-0.4-4-0.4c-2.7,0-3.7,0.3-3.7,2.9s0.7,3.1,3.7,3.1c1.4,0,2.7-0.2,4-0.7V48.3z"/>
	<path id="path16" class="st1" d="M182.8,48.7v8.5h-4.9v-20h4.9v7.3h7.8v-7.3h4.9v19.9h-4.9v-8.5h-7.8V48.7z"/>
	<path id="path18" class="st1" d="M199.5,47.1c0-8.1,3.2-10.5,9.5-10.5s9.6,2.3,9.6,10.5s-3.1,10.6-9.6,10.6   C202.7,57.7,199.5,55.2,199.5,47.1z M204.5,47.2c0,5.5,1.1,6.6,4.5,6.6s4.5-1.1,4.5-6.6c0-5.7-1.1-6.6-4.5-6.6   S204.5,41.4,204.5,47.2z"/>
	<path id="path20" class="st1" d="M237.8,56.7c-2,0.6-4,1-6.1,1c-6.1,0-9.9-2.4-9.9-10.6s3.8-10.5,9.9-10.5c2.1,0,4.1,0.3,6.1,0.9   l-1.1,4.1c-1.5-0.6-3-0.9-4.6-0.9c-3.5,0-5.2,0.8-5.2,6.3c0,5.3,1.7,6.3,5.2,6.3c1.6,0,3.1-0.3,4.6-0.9L237.8,56.7z"/>
	<path id="path22" class="st1" d="M257.5,56.6c-2.3,0.7-4.6,1.1-7,1.1c-5.8,0-9.7-2.4-9.7-10.6c0-8,3.5-10.5,9.3-10.5   c6.3,0,9,2.2,8.7,11.8h-12.9c0,4.3,1.7,5.1,5.2,5.1c1.9-0.1,3.8-0.4,5.6-0.8L257.5,56.6L257.5,56.6z M246,44.7h8.4   c-0.2-3.5-1.2-4.3-4-4.3C247.4,40.5,246.3,41.4,246,44.7z"/>
	<path id="path24" class="st1" d="M279.8,37.2h6.8v19.9h-4.8V42.6c-1.8,4-4,9.4-5.5,13.3h-3.6c-1.4-3.9-3.6-9.5-5.3-13.3v14.5h-4.9   V37.2h7.1c1.8,3.8,3.5,7.7,5.2,11.9C276.2,45,277.9,41.1,279.8,37.2L279.8,37.2z"/>
	<path id="path26" class="st1" d="M308.1,56.1c-2.9,1-5.9,1.6-9,1.6c-6.3,0-8.4-1.4-8.4-6.7c0-5.6,3.2-6.5,7.8-6.5   c1.6,0,3.3,0.2,4.9,0.5c0-3.5-0.8-4.3-5-4.3c-2,0-4.1,0.3-6,0.9l-0.9-4c2.6-0.7,5.2-1,7.9-1.1c5.9,0,8.6,1.8,8.6,7.8v11.8H308.1z    M303.5,48.3c-1.3-0.3-2.7-0.4-4-0.4c-2.7,0-3.7,0.3-3.7,2.9s0.7,3.1,3.7,3.1c1.4,0,2.7-0.2,4-0.7V48.3z"/>
	<path id="path28" class="st1" d="M317.6,48.7v8.5h-4.9v-20h4.9v7.3h7.8v-7.3h4.9v19.9h-4.9v-8.5h-7.8V48.7z"/>
	<path id="path30" class="st1" d="M344.9,57.1H340V41.4h-6.8v-4.2h18.6v4.2h-6.9L344.9,57.1L344.9,57.1z"/>
	<path id="path32" class="st1" d="M367.5,45c-2.4,4.3-5.1,8.3-8.1,12.2h-4.9v-20h4.9v12.7c3-4,5.7-8.3,8.1-12.7h4.9v19.9h-4.9V45z"/>
	<path id="path34" class="st1" d="M390.7,57.1c-3.4-7.1-5.7-8.7-8.3-9.2v9.2h-4.9V37.2h4.9v9.6c1.6-1.7,4.5-5.3,7.7-9.6h5.8   c-3.8,5.2-6.5,8.3-7.6,9.1c2,0.8,3.8,2,8,10.8L390.7,57.1z"/>
	<path id="path36" class="st1" d="M415.7,56.1c-2.9,1-5.9,1.6-9,1.6c-6.3,0-8.4-1.4-8.4-6.7c0-5.6,3.2-6.5,7.8-6.5   c1.6,0,3.3,0.2,4.9,0.5c0-3.5-0.8-4.3-5-4.3c-2,0-4.1,0.3-6,0.9l-0.9-4c2.6-0.7,5.2-1,7.9-1.1c5.9,0,8.6,1.8,8.6,7.8v11.8H415.7z    M411,48.3c-1.3-0.3-2.7-0.4-4-0.4c-2.7,0-3.7,0.3-3.7,2.9s0.7,3.1,3.7,3.1c1.4,0,2.7-0.2,4-0.7V48.3z"/>
</g>
</svg>
